<svg xmlns="http://www.w3.org/2000/svg" xmlns:xlink="http://www.w3.org/1999/xlink" viewBox="0 0 83.53 115.64"><defs><style>.cls-1{fill:#fce8d9;}.cls-2{fill:#f4f0d3;}.cls-3{fill:#a5452f;}.cls-4{fill:none;stroke:#f4f0d3;stroke-linecap:round;stroke-miterlimit:10;stroke-width:1.7px;}.cls-10,.cls-5{fill:#f4c7bd;}.cls-5{opacity:0.5;}.cls-6{fill:#3a3129;}.cls-7{opacity:0.25;}.cls-8{fill:#eae588;}.cls-9{opacity:0.15;}.cls-11{fill:#5e5149;}.cls-12{fill:#e2823b;}.cls-13,.cls-16{fill:#fff;}.cls-13{opacity:0.1;}.cls-14{fill:url(#Degradado_sin_nombre_51);}.cls-15{opacity:0.07;}.cls-17{fill:#bc5d1d;}</style><linearGradient id="Degradado_sin_nombre_51" x1="38.43" y1="32.31" x2="36.86" y2="38.43" gradientUnits="userSpaceOnUse"><stop offset="0.22" stop-color="#fce8d9"/><stop offset="1" stop-color="#f4c7bd"/></linearGradient></defs><g id="Layer_2" data-name="Layer 2"><g id="ילדשאלה_נכונה" data-name="ילדשאלה נכונה"><path class="cls-1" d="M80.65,50.41a15.62,15.62,0,0,1,1.8.16,1.25,1.25,0,0,1,.94.45c.66,1.06-1.13,1.35-1.74,1.37.32.08.7.06.92.3a.6.6,0,0,1,.14.48,1.1,1.1,0,0,1-.77.88,3.26,3.26,0,0,1-1.21.11l-2-.06c.36.08.72.18,1.08.24a2.56,2.56,0,0,1,1,.19.58.58,0,0,1,.23.79.71.71,0,0,1-.4.23,5.26,5.26,0,0,1-1.43.12c-2.2-.08-4.73-.5-6.37-2.06l-5.91,2.11A33.19,33.19,0,0,1,55.2,57.87a.89.89,0,0,1-.36-.07.66.66,0,0,1-.26-.33,6.09,6.09,0,0,1-.19-3.41c.17-1.51,1-2,2.35-2.47a22.36,22.36,0,0,1,5.88-.87c1.05-.09,2.1-.24,3.14-.39l3.09-.45a9.26,9.26,0,0,0,2.67-.54c1.39-.64,2.18-2.11,3.34-3.11a1.2,1.2,0,0,1,1-.38c.54.16.63.91.44,1.44a6.75,6.75,0,0,0-.64,1.56,20.46,20.46,0,0,1,5.2-.89c.55,0,1.25.09,1.36.62s-.32.84-.72,1.07a6.42,6.42,0,0,1-3.08.85A15.84,15.84,0,0,1,80.65,50.41Z"/><path class="cls-1" d="M2.89,50.41a15.6,15.6,0,0,0-1.81.16A1.21,1.21,0,0,0,.15,51c-.67,1.06,1.12,1.35,1.73,1.37-.32.08-.7.06-.92.3a.6.6,0,0,0-.14.48,1.12,1.12,0,0,0,.77.88,3.26,3.26,0,0,0,1.21.11l2-.06c-.36.08-.72.18-1.08.24a2.56,2.56,0,0,0-1,.19.58.58,0,0,0-.23.79.71.71,0,0,0,.4.23,5.26,5.26,0,0,0,1.43.12c2.2-.08,4.73-.5,6.37-2.06l5.91,2.11a33.19,33.19,0,0,0,11.67,2.15.86.86,0,0,0,.36-.07.66.66,0,0,0,.26-.33,6,6,0,0,0,.19-3.41c-.17-1.51-1-2-2.34-2.47a22.5,22.5,0,0,0-5.89-.87c-1.05-.09-2.09-.24-3.14-.39l-3.09-.45A9.32,9.32,0,0,1,12,49.34c-1.39-.64-2.17-2.11-3.34-3.11a1.19,1.19,0,0,0-1-.38c-.54.16-.63.91-.44,1.44a6.75,6.75,0,0,1,.64,1.56A20.46,20.46,0,0,0,2.62,48c-.55,0-1.25.09-1.36.62s.32.84.73,1.07a6.38,6.38,0,0,0,3.07.85A15.76,15.76,0,0,0,2.89,50.41Z"/><path class="cls-1" d="M49.86,88.8a86.14,86.14,0,0,0-3.36,16.67,1.27,1.27,0,0,1-.45,1,1.19,1.19,0,0,1-.52.11,11.59,11.59,0,0,1-2.5-.15q-.81-8.92-1-17.9Z"/><path class="cls-2" d="M47.47,102.84c-.06-.38-.55-.54-.92-.45s-.68.34-1,.47c-1,.36-2.15-.38-3.26-.4a.75.75,0,0,0-.33.06.47.47,0,0,0-.17.53.91.91,0,0,0,.37.45.73.73,0,0,1,.22.21,1,1,0,0,1,0,.38,1.41,1.41,0,0,0,.61,1l.73.65a1.65,1.65,0,0,0,.74.46,1.62,1.62,0,0,0,1.21-.51c.55-.44,2-1.15,1.22-2C47.13,103.49,47.53,103.23,47.47,102.84Z"/><path class="cls-3" d="M48.78,104.13a2.38,2.38,0,0,1,.92,3.46c.77.84,1.54,1.68,2.32,2.51a2.18,2.18,0,0,0,.72.6,3.58,3.58,0,0,0,1.27.16,2.73,2.73,0,0,1,2.09,1.19,2.15,2.15,0,0,1,0,2.35c-.66.95-2,1.1-3.15,1.16a21.89,21.89,0,0,1-6.47-.33,15.91,15.91,0,0,0-1.81-.44,20.67,20.67,0,0,0-2.61,0,.92.92,0,0,1-1-.64,6.18,6.18,0,0,1-.34-1,9.65,9.65,0,0,1-.24-2.28c0-1.6.27-3.41,1.57-4.34a1.08,1.08,0,0,1,.08-1.45,1.52,1.52,0,0,1,1.5-.32,2.57,2.57,0,0,1,1.26.94C46.17,104.93,46.94,103.29,48.78,104.13Z"/><path class="cls-2" d="M40.72,113.19a6.18,6.18,0,0,0,.34,1,.92.92,0,0,0,1,.64,20.67,20.67,0,0,1,2.61,0,15.91,15.91,0,0,1,1.81.44,21.89,21.89,0,0,0,6.47.33c1.16-.06,2.49-.21,3.15-1.16a2.15,2.15,0,0,0,0-2.35A2.73,2.73,0,0,0,54,110.86a3.58,3.58,0,0,1-1.27-.16,2.64,2.64,0,0,0-1.44,1.13,5.47,5.47,0,0,0-.67,1.75,16.35,16.35,0,0,0-5.76-.52Z"/><path class="cls-4" d="M50.26,107.82a3.72,3.72,0,0,0-2.74,1"/><path class="cls-4" d="M51.14,108.89a16.8,16.8,0,0,0-2.11.56,2.05,2.05,0,0,0-.56.26,1.7,1.7,0,0,0-.35.36"/><path class="cls-4" d="M42.34,108.85A1.19,1.19,0,1,1,43.53,110,1.18,1.18,0,0,1,42.34,108.85Z"/><path class="cls-5" d="M47.21,97.5a.8.8,0,0,1-.66.5.6.6,0,0,1-.48-.31,1.45,1.45,0,0,1-.15-.54,3.61,3.61,0,0,1,0-1.39c.15-.53,1.13-1.59,1.56-.81A3.78,3.78,0,0,1,47.21,97.5Z"/><path class="cls-1" d="M30.58,88.8a86.14,86.14,0,0,1,3.36,16.67,1.25,1.25,0,0,0,.46,1,1.13,1.13,0,0,0,.52.11,11.54,11.54,0,0,0,2.49-.15q.81-8.92,1-17.9Z"/><path class="cls-6" d="M26.75,77a34.06,34.06,0,0,0,1.42,9,4.72,4.72,0,0,1,.3,2.22c-.1.49-.38,1-.22,1.47.22.66,1.06.82,1.76.86l6.55.37a4.82,4.82,0,0,0,2.36-.25,1.69,1.69,0,0,0,1-1.91c.24.72,0,1.48.84,2a5.39,5.39,0,0,0,2.32.44,54.22,54.22,0,0,0,7.21-.08,2.58,2.58,0,0,0,1.78-.59c.45-.46.34-1.43-.3-1.54a43.52,43.52,0,0,0,.93-12.1Z"/><path class="cls-2" d="M33,102.84c.06-.38.55-.54.92-.45s.69.34,1,.47c1.05.36,2.15-.38,3.26-.4a.75.75,0,0,1,.33.06.47.47,0,0,1,.17.53.91.91,0,0,1-.37.45.6.6,0,0,0-.21.21.81.81,0,0,0,0,.38,1.41,1.41,0,0,1-.61,1l-.73.65a1.65,1.65,0,0,1-.74.46,1.63,1.63,0,0,1-1.21-.51c-.55-.44-2-1.15-1.22-2C33.31,103.49,32.91,103.23,33,102.84Z"/><path class="cls-3" d="M31.66,104.13a2.38,2.38,0,0,0-.92,3.46c-.77.84-1.54,1.68-2.32,2.51a2.18,2.18,0,0,1-.72.6,3.58,3.58,0,0,1-1.27.16,2.73,2.73,0,0,0-2.09,1.19,2.17,2.17,0,0,0,0,2.35c.67.95,2,1.1,3.15,1.16a21.89,21.89,0,0,0,6.47-.33,16.45,16.45,0,0,1,1.81-.44,20.66,20.66,0,0,1,2.61,0,.92.92,0,0,0,1-.64,6.18,6.18,0,0,0,.34-1,10.21,10.21,0,0,0,.25-2.28c0-1.6-.28-3.41-1.58-4.34a1.08,1.08,0,0,0-.07-1.45,1.53,1.53,0,0,0-1.51-.32,2.67,2.67,0,0,0-1.26.94C34.28,104.93,33.5,103.29,31.66,104.13Z"/><path class="cls-2" d="M39.72,113.19a6.18,6.18,0,0,1-.34,1,.92.92,0,0,1-1,.64,20.66,20.66,0,0,0-2.61,0,16.45,16.45,0,0,0-1.81.44,21.89,21.89,0,0,1-6.47.33c-1.16-.06-2.48-.21-3.15-1.16a2.17,2.17,0,0,1,0-2.35,2.73,2.73,0,0,1,2.09-1.19,3.58,3.58,0,0,0,1.27-.16,2.64,2.64,0,0,1,1.44,1.13,5.47,5.47,0,0,1,.67,1.75,16.35,16.35,0,0,1,5.76-.52Z"/><path class="cls-4" d="M30.18,107.82a3.76,3.76,0,0,1,2.75,1"/><path class="cls-4" d="M29.3,108.89a16.8,16.8,0,0,1,2.11.56,2.27,2.27,0,0,1,.57.26,2.39,2.39,0,0,1,.35.36"/><path class="cls-4" d="M38.1,108.85A1.19,1.19,0,1,0,36.91,110,1.18,1.18,0,0,0,38.1,108.85Z"/><path class="cls-5" d="M33.24,97.5a.77.77,0,0,0,.65.5.6.6,0,0,0,.48-.31,1.45,1.45,0,0,0,.15-.54,3.61,3.61,0,0,0,0-1.39c-.15-.53-1.12-1.59-1.56-.81A3.73,3.73,0,0,0,33.24,97.5Z"/><g class="cls-7"><path d="M39.27,81.29a27.85,27.85,0,0,0,.27,5.9l-.32-.31a3.7,3.7,0,0,0,1.52.12l-.23.3a29.21,29.21,0,0,1,.41-4.09,28.9,28.9,0,0,0,.17,4.06l0,.23-.26.07a4.24,4.24,0,0,1-1.81.12l-.23,0-.09-.28a29.36,29.36,0,0,1-1.15-6.06Z"/></g><g class="cls-7"><path d="M28.17,83.92a10.89,10.89,0,0,1,.36-2.07c.17-.65.38-1.26.6-1.88l.32-.85.93.45a9,9,0,0,1,.9.51l.73.48-.3.58a6,6,0,0,1-1,1.37,4.58,4.58,0,0,1-1.38,1c.12-.57.28-1.08.43-1.57l.45-1.42.43,1.06A11.18,11.18,0,0,1,29.46,81l1.25-.41a8,8,0,0,1-1,1.83A5.64,5.64,0,0,1,28.17,83.92Z"/></g><g class="cls-7"><path d="M51.9,82.64a6,6,0,0,1-2-.65,8.36,8.36,0,0,1-1.75-1.2l1,.13-.58.34-.3.16-.15.07-.09.05a.88.88,0,0,0,.17-.19.73.73,0,0,0,.1-.52c-.1-.31-.12-.23-.07-.19l.16.24c.11.16.22.33.35.49a15.27,15.27,0,0,0,1.77,1.92,4.2,4.2,0,0,1-2.77-.89,5.47,5.47,0,0,1-.57-.51c-.08-.09-.17-.18-.25-.28a.87.87,0,0,1-.24-.47,1,1,0,0,1,.13-.69,1.17,1.17,0,0,1,.29-.3l.2-.12.15-.09.29-.17.6-.31.57-.3.41.43c.45.46.89.94,1.33,1.44A17,17,0,0,1,51.9,82.64Z"/></g><g class="cls-7"><path d="M29.29,88.39c1.36.1,2.69.21,4,.25s2.65,0,4,0l-.16.76a6.72,6.72,0,0,0-2.29-.63,5.9,5.9,0,0,1-2.43-.82,8.68,8.68,0,0,0,2.49.25,6.09,6.09,0,0,1,2.61.48l1.29.63-1.45.14a19.38,19.38,0,0,1-4.1,0A15.42,15.42,0,0,1,29.29,88.39Z"/></g><g class="cls-7"><path d="M51.11,89.33a15.42,15.42,0,0,1-9.5-.16c1.62-.08,3.18,0,4.75,0S49.49,89.19,51.11,89.33Z"/></g><path class="cls-8" d="M31.17,51.49c-1.55-.2-3.1-.42-4.62-.59a1.05,1.05,0,0,0-.68.07,1,1,0,0,0-.34.53,25.66,25.66,0,0,0-1.25,8.59.53.53,0,0,0,.5.68l2.25.46c-.41-.09-1.83,8.55-1.94,9.34a71.64,71.64,0,0,0-.62,10.35,14.29,14.29,0,0,0,4.11.82,114.11,114.11,0,0,0,12.4.44c3.63-.06,8,.06,11.34-1.49,1-.47,1-.59.93-1.54,0-1.15-.07-2.29-.1-3.44q-.15-7.17-.31-14.34a31.85,31.85,0,0,0,5.87-1.2c-.24-3.05,0-6.18-.48-9.21-5.21.35-10.57.1-15.71.86A41.2,41.2,0,0,1,31.17,51.49Z"/><path class="cls-1" d="M36.43,47.29H34.85s-.21,6-.23,6.43a.61.61,0,0,0,.05.3.51.51,0,0,0,.28.19,10.36,10.36,0,0,0,3.23.48c2.33.09,4.88.08,6.71-1.36-.59.47-2-1.74-2-2.14A14,14,0,0,1,43,47.1c-1.31,0-2.59.22-3.89.22Z"/><path class="cls-9" d="M42.65,47.53l-7.81-.06c0,.34,0,1.15-.07,2.08a4.93,4.93,0,0,0,3.07,1.23A5.77,5.77,0,0,0,42.65,47.53Z"/><g class="cls-7"><path d="M27.64,111.7a2.31,2.31,0,0,0-.48.58,6.59,6.59,0,0,0-.34.57,13.11,13.11,0,0,0-.62,1.32,1.49,1.49,0,0,1-.12-1.73,1.72,1.72,0,0,1,.65-.66A.92.92,0,0,1,27.64,111.7Z"/></g><g class="cls-7"><path d="M26.2,111.28a3.14,3.14,0,0,0-1.62,2.6,1.56,1.56,0,0,1,1.62-2.6Z"/></g><g class="cls-7"><path d="M52.18,111.92a1,1,0,0,1,1-.09,1.57,1.57,0,0,1,.79.67,1.94,1.94,0,0,1,.26,1,1.51,1.51,0,0,1,0,.47.54.54,0,0,1-.28.43.7.7,0,0,0-.13-.39l-.18-.37a6.75,6.75,0,0,0-.35-.66,2.9,2.9,0,0,0-.4-.54A2.37,2.37,0,0,0,52.18,111.92Z"/></g><g class="cls-7"><path d="M53.17,111.26a1.77,1.77,0,0,1,2.25.33,1.94,1.94,0,0,1,.48,1.15,1.54,1.54,0,0,1-.35,1.12,3.32,3.32,0,0,0-.76-1.69,2.12,2.12,0,0,0-.66-.52C53.87,111.51,53.53,111.41,53.17,111.26Z"/></g><path class="cls-3" d="M40,67a65.18,65.18,0,0,1-7.65-.76c-2.11-.33-4.18-1-6.31-1.17-.31,1.6-.6,3.34-.78,4.44a2.26,2.26,0,0,0,.43.11,109.26,109.26,0,0,0,15,1.63c3.94.16,8.48.44,12.37-.68L53,66.26A66.07,66.07,0,0,1,40,67Z"/><path class="cls-1" d="M16.43,27.16a4.23,4.23,0,0,0-2.84-1.45,3.21,3.21,0,0,0-2.82,1.37,4.83,4.83,0,0,0-.6,2.4c-.1,1.93.16,4.06,1.55,5.41s3.46,1.57,5.38,1.66Z"/><path class="cls-10" d="M14.66,31.05c0,1-.52,1.86-1.17,1.86s-1.18-.83-1.18-1.86.53-1.85,1.18-1.85S14.66,30,14.66,31.05Z"/><path class="cls-1" d="M61.25,27.16a4.25,4.25,0,0,1,2.85-1.45,3.19,3.19,0,0,1,2.81,1.37,4.83,4.83,0,0,1,.6,2.4c.1,1.93-.16,4.06-1.54,5.41s-3.47,1.57-5.39,1.66Z"/><path class="cls-10" d="M63,31.05c0,1,.53,1.86,1.18,1.86s1.17-.83,1.17-1.86-.53-1.85-1.17-1.85S63,30,63,31.05Z"/><path class="cls-1" d="M16.94,31.45a14.57,14.57,0,0,0-.42,6.42c.87,4,4.51,6.75,8.21,8.47a33.65,33.65,0,0,0,27.14.36c3.62-1.56,7.2-4.09,8.29-7.88,1-3.37-.24-6.93-1.43-10.23-2.09-5.77-4.45-11.9-9.46-15.43A17.9,17.9,0,0,0,34.17,11C24.1,13.91,19.23,21.82,16.94,31.45Z"/><path class="cls-11" d="M24.27,31a2.7,2.7,0,0,1-.16-2.21,5.13,5.13,0,0,1,1.17-1.94,4.72,4.72,0,0,1,.85-.76,5,5,0,0,1,1.22-.6,5.21,5.21,0,0,1,2.6,0,5.75,5.75,0,0,1,2.18,1.2,5.35,5.35,0,0,1,1.34,1.93,6.54,6.54,0,0,1,.29,4.15l-.17,0a10.85,10.85,0,0,0-1.27-3.48,4.64,4.64,0,0,0-2.81-2.18A3.74,3.74,0,0,0,27.72,27a4,4,0,0,0-1.59.84,3.74,3.74,0,0,0-1.69,3.08Z"/><path class="cls-11" d="M51.86,30.94a3.76,3.76,0,0,0-1.69-3.08A4,4,0,0,0,48.58,27a3.74,3.74,0,0,0-1.79.06A4.61,4.61,0,0,0,44,29.26a10.85,10.85,0,0,0-1.27,3.48l-.17,0a6.54,6.54,0,0,1,.29-4.15,5.35,5.35,0,0,1,1.34-1.93,5.75,5.75,0,0,1,2.18-1.2,5.21,5.21,0,0,1,2.6,0,5,5,0,0,1,1.22.6,5.73,5.73,0,0,1,2,2.7A2.7,2.7,0,0,1,52,31Z"/><path class="cls-12" d="M38.63,26.87a18,18,0,0,0,7.84,1.39,11.6,11.6,0,0,1-1.94-3.9,13.8,13.8,0,0,0,8.39,2.26c2-.08,3.09,2,3.25,3.92a5.64,5.64,0,0,1-1.38,4.14A9.69,9.69,0,0,0,59,32.17a6.47,6.47,0,0,0,2.6,6,9.2,9.2,0,0,1,.58-5.3c.73-1.87,2.1-3.4,2.71-5.27a18.47,18.47,0,0,0,.57-6.41c-.23-7.17-3-13.62-10-17.68A28.7,28.7,0,0,0,34.5.89,20.29,20.29,0,0,0,29.82,2.6a14,14,0,0,0-4.95,4.34,1.89,1.89,0,0,1-.64.68,2.39,2.39,0,0,1-1,.21,11.08,11.08,0,0,0-7,3.53c-5.19,5.55-4.92,14.56-1.3,20.82A9.05,9.05,0,0,0,17.6,35.3a22.47,22.47,0,0,1-.41-5.11A3,3,0,0,0,18.32,32c-.64-.49.44-3.83.66-4.44a12.66,12.66,0,0,1,2.55-4c2.11-2.41,3.83-4.94,6.89-6.33-.58.26,2.56,4.67,2.91,5.05A20.58,20.58,0,0,0,38.63,26.87Z"/><path class="cls-9" d="M54.79,34.68a5.64,5.64,0,0,0,1.38-4.14c-.16-1.88-1.23-4-3.25-3.92a13.8,13.8,0,0,1-8.39-2.26,38,38,0,0,0,12.23,1.16,4.48,4.48,0,0,1-1.29,1.12c1.17.14,1.82,1.46,1.91,2.64A6.25,6.25,0,0,1,54.79,34.68Z"/><path class="cls-9" d="M28.42,17.25c-3.06,1.39-4.78,3.92-6.89,6.33a12.66,12.66,0,0,0-2.55,4c-.22.61-1.3,3.95-.66,4.44-1.36-1.33-.38-6.19.84-8.89A10.36,10.36,0,0,1,28.42,17.25Z"/><path class="cls-13" d="M40.63,20.77A22,22,0,0,1,39,15.82,22.7,22.7,0,0,0,58.29,20a13.08,13.08,0,0,1-4.62-2.91,43,43,0,0,0,4.68.07,1.84,1.84,0,0,0,1-.24,1.81,1.81,0,0,0,.47-1.74A15.78,15.78,0,0,0,47.37,1.79a22.63,22.63,0,0,0-5-.28,19.22,19.22,0,0,0-6.94,1.31,9.38,9.38,0,0,0-4.9,4.4c-.69,1.7.14,3.65.86,5.22a16,16,0,0,0,3.85,5.21,15.42,15.42,0,0,0,2.64,1.91C38.3,19.79,40.48,20.44,40.63,20.77Z"/><path class="cls-13" d="M53.08,6.85a5.22,5.22,0,0,1,2.15,3.27A16.27,16.27,0,0,0,48,6.77a10.21,10.21,0,0,0,4.43,4.39A16,16,0,0,1,41.56,6.65a7.93,7.93,0,0,0,3.17,4.69c-.82-.57-2.49-.65-3.46-1.11a10.76,10.76,0,0,1-3.19-2.18c-1.57-1.7-1.3-3.54,1-4.22A15.85,15.85,0,0,1,53.08,6.85Z"/><path class="cls-13" d="M18.11,11.66a6.58,6.58,0,0,0-1.94,4.63A24.67,24.67,0,0,1,20.47,13a7.12,7.12,0,0,1-1.38,2.36,7.83,7.83,0,0,0,4.19-1.42c1.26-1,2.52-3.72.41-4.43C21.94,8.9,19.27,10.49,18.11,11.66Z"/><path class="cls-14" d="M36.46,35.44c-.4.48-1,1-.84,1.59a1.09,1.09,0,0,0,.64.72,2.34,2.34,0,0,0,1,.14,2,2,0,0,0,1.16-.28,1.93,1.93,0,0,0,.66-1.73,4.14,4.14,0,0,0-1.41-3A12.59,12.59,0,0,1,36.46,35.44Z"/><path class="cls-15" d="M38.4,37.61a2,2,0,0,1-1.16.28,2.34,2.34,0,0,1-1-.14,1.09,1.09,0,0,1-.64-.72,3.35,3.35,0,0,0,1.32.38Z"/><path class="cls-12" d="M60.71,31.94a6,6,0,0,0-2.18,3.76,7.75,7.75,0,0,1-.87-5.3Z"/><path class="cls-12" d="M22.63,7.56a12.43,12.43,0,0,1,3-3.9,9.58,9.58,0,0,1,2-1.3c.69-.34,1.38-.61,2.07-.88a12.43,12.43,0,0,0-2.74,3.27,9.93,9.93,0,0,0-1,3.82Z"/><path class="cls-12" d="M24.5,9.31a16.8,16.8,0,0,0-6.78-1.14,18.57,18.57,0,0,1,7.17-2.25Z"/><path class="cls-12" d="M18.56,29.61a5.35,5.35,0,0,0-.17,4.1,7.13,7.13,0,0,1-3.25-4Z"/><path class="cls-12" d="M30.76,16.9a7.88,7.88,0,0,0,.3,5.07,8.75,8.75,0,0,0,3.68,4.22,9.63,9.63,0,0,1-5.15-3.34,10.53,10.53,0,0,1-2.23-6.29Z"/><ellipse class="cls-10" cx="22.68" cy="33.58" rx="0.88" ry="0.41"/><ellipse class="cls-10" cx="25.82" cy="33.86" rx="0.88" ry="0.41"/><ellipse class="cls-10" cx="23.97" cy="35.12" rx="0.88" ry="0.41"/><ellipse class="cls-10" cx="53.34" cy="33.58" rx="0.88" ry="0.41"/><ellipse class="cls-10" cx="50.2" cy="33.86" rx="0.88" ry="0.41"/><ellipse class="cls-10" cx="52.05" cy="35.12" rx="0.88" ry="0.41"/><path class="cls-16" d="M47.74,37.8c.33,2.24-1.32,4.39-3.36,5.38a15,15,0,0,1-6.65,1,9.93,9.93,0,0,1-4.9-.9,8,8,0,0,1-3.64-4.79C35.22,40.88,41.83,40.24,47.74,37.8Z"/><path class="cls-1" d="M49.42,39.53a11.19,11.19,0,0,1-4,1.92,23.38,23.38,0,0,1-4.21.75,25,25,0,0,1-8.36-.67,24.23,24.23,0,0,0,8.24-.18A22.66,22.66,0,0,0,45,40.24a9.89,9.89,0,0,0,3.29-2Z"/><path class="cls-17" d="M25.13,22.36a7.34,7.34,0,0,1,1.17-2.09,6.69,6.69,0,0,1,1.95-1.65c.39-.22.79-.47,1.23-.67a2.2,2.2,0,0,1,1.39-.13,3,3,0,0,1,1.31.64A2.42,2.42,0,0,1,33,19.82l-.14.31-1.2.69a7.91,7.91,0,0,1-.85.41,1.16,1.16,0,0,1-.78.05,2.9,2.9,0,0,0-.88-.09,7.74,7.74,0,0,0-1.85.44,11.56,11.56,0,0,0-1.94.95Z"/><path class="cls-17" d="M51.84,21.94c-.75-.2-1.46-.4-2.17-.53a20.13,20.13,0,0,0-2-.3c-.67-.05-1.32.29-1.87,0a4.46,4.46,0,0,1-.91-.51,8.66,8.66,0,0,1-1.14-.88l-.07-.33a2.87,2.87,0,0,1,1-1.19A3.21,3.21,0,0,1,46,17.7c.91-.2,1.71.42,2.45.8a9,9,0,0,1,2,1.39A10.65,10.65,0,0,1,52,21.66Z"/></g></g></svg>